<svg xmlns="http://www.w3.org/2000/svg" xmlns:xlink="http://www.w3.org/1999/xlink" width="234" height="86" viewBox="0 0 234 86">
    <defs>
        <path id="a" d="M1.592 85.477h233.042V.455H1.592z"/>
    </defs>
    <g fill="none" fill-rule="evenodd">
        <path fill="#18A1DB" d="M10.894 65.932c4.814 0 7.344 2.29 7.344 2.29l-1.469 1.985s-2.285-1.832-5.712-1.832c-4.732 0-7.588 3.207-7.588 7.253 0 4.352 3.182 7.406 7.425 7.406 3.509 0 5.712-2.367 5.712-2.367V77.92h-3.264v-2.29h5.875v9.467H16.77V83.187h-.081s-2.204 2.29-6.202 2.29c-5.467 0-9.873-3.97-9.873-9.772 0-5.498 4.406-9.773 10.281-9.773M23.134 65.932h2.812v12.41c0 2.947 2.008 4.653 4.98 4.653 3.054 0 5.062-1.706 5.062-4.73V65.931H38.8v12.41c0 4.266-3.213 7.135-7.793 7.135-4.66 0-7.793-2.87-7.793-7.135v-12.41h-.08zM50.139 68.622s-.467 1.741-.778 2.77l-2.178 6.172h5.834l-2.1-6.172c-.312-.95-.778-2.77-.778-2.77zm3.578 11.237h-7.234l-1.945 5.618h-2.8l6.923-19.545h2.8l6.923 19.545H55.66l-1.944-5.618zM64.306 68.306h-6.901v-2.374H74.05v2.374h-6.902v17.171h-2.842zM76.988 65.932h11.28v2.383H79.73v6.118H86.7v2.384H79.73v6.277h9.008v2.383H77.066V65.932zM93.314 65.932h2.949l4.67 10.604c.491 1.107.983 2.61.983 2.61h.082s.573-1.582.983-2.61l4.67-10.604h2.948l1.639 19.545h-2.785l-.984-12.344c-.081-1.187 0-2.849 0-2.849h-.081s-.574 1.82-1.065 2.849l-4.015 8.783h-2.54l-4.013-8.783c-.492-1.029-1.065-2.928-1.065-2.928h-.082s0 1.74-.082 2.928l-.983 12.344h-2.868l1.639-19.545zM122.597 68.622s-.467 1.741-.778 2.77l-2.178 6.172h5.834l-2.1-6.172c-.311-.95-.778-2.77-.778-2.77zm3.578 11.237h-7.234l-1.945 5.618h-2.8l6.923-19.545h2.8l6.923 19.545h-2.8l-1.867-5.618zM133.78 65.932h2.816v17.171h8.934v2.374h-11.67V65.932zM154.832 68.622s-.467 1.741-.778 2.77l-2.178 6.172h5.834l-2.1-6.172c-.312-.95-.7-2.77-.778-2.77zm3.656 11.237h-7.234l-1.945 5.618h-2.8l6.923-19.545h2.8l6.923 19.545h-2.8l-1.867-5.618z"/>
        <mask id="b" fill="#fff">
            <use xlink:href="#a"/>
        </mask>
        <path fill="#18A1DB" d="M166.092 85.477h1.958v-1.954h-1.958zM180.908 65.932c4.754 0 7.213 2.385 7.213 2.385l-.738.847s-2.377-2.155-6.393-2.155c-4.919 0-8.69 3.617-8.69 8.542 0 4.924 3.771 8.772 8.772 8.772 4.344 0 6.803-2.54 6.803-2.54l.738.847s-2.705 2.847-7.541 2.847c-5.82 0-10.083-4.386-10.083-9.85-.082-5.54 4.263-9.695 9.919-9.695M201.342 84.396c4.738 0 8.528-3.863 8.528-8.807 0-4.867-3.79-8.576-8.528-8.576s-8.528 3.709-8.528 8.576c0 5.021 3.79 8.807 8.528 8.807m0-18.464c5.37 0 9.792 4.249 9.792 9.657 0 5.562-4.422 9.888-9.792 9.888s-9.792-4.326-9.792-9.888c0-5.408 4.422-9.657 9.792-9.657M216.62 65.932h1.178l5.573 12.286c.471.957.942 2.233.942 2.233h.079s.47-1.276.942-2.233l5.573-12.286h1.178l1.57 19.545h-1.178L231.3 70.56c-.079-.957-.079-2.633-.079-2.633h-.157s-.55 1.676-1.02 2.633l-5.181 11.169h-1.178l-5.102-11.17c-.393-.956-1.02-2.632-1.02-2.632h-.08s0 1.676-.078 2.633l-1.177 14.918h-1.178l1.57-19.545zM136.42 54.205H98.827c-5.01 0-9.11-3.948-9.11-8.774V9.228c0-4.825 4.1-8.773 9.11-8.773h37.593c5.01 0 9.11 3.948 9.11 8.773V45.43c0 4.826-4.1 8.774-9.11 8.774" mask="url(#b)"/>
        <path fill="#FEFEFE" d="M125.853 24.63h-8.747c-1.786 0-3.265 1.44-3.265 3.18 0 1.74 1.479 3.18 3.265 3.18h7.207v5.58c0 .84-.678 1.501-1.54 1.501h-5.359c-4.681 0-8.5-3.72-8.5-8.281v-4.92c0-4.561 3.819-8.282 8.5-8.282 2.156 0 4.25.78 5.852 2.22 1.293 1.2 3.387 1.14 4.62-.12 1.231-1.26 1.17-3.3-.124-4.5-2.772-2.58-6.467-3.96-10.286-3.96-8.316 0-15.03 6.6-15.03 14.641v4.92c0 7.862 6.406 14.343 14.414 14.643h5.913c4.435 0 8.07-3.54 8.07-7.861V29.49c0-2.7-2.218-4.86-4.99-4.86" mask="url(#b)"/>
    </g>
</svg>
